<svg xmlns="http://www.w3.org/2000/svg" width="430" height="430" fill="none" viewBox="0 0 430 430"><g stroke-linecap="round" stroke-linejoin="round" stroke-width="12"><path stroke="#121331" stroke-miterlimit="10" d="M83.447 160.5C60.097 111.36 111.36 60.097 160.5 83.447c18.255-51.263 90.744-51.263 108.999 0 49.14-23.35 100.403 27.913 77.053 77.053 51.263 18.255 51.263 90.744 0 109 23.35 49.14-27.913 100.402-77.053 77.053-18.255 51.262-90.744 51.262-108.999 0-49.14 23.349-100.402-27.913-77.053-77.053-51.263-18.256-51.263-90.745 0-109"/><path stroke="#08a88a" d="M288 147 148 287m120 5c13.807 0 25-11.193 25-25s-11.193-25-25-25-25 11.193-25 25 11.193 25 25 25M168 192c13.807 0 25-11.193 25-25s-11.193-25-25-25-25 11.193-25 25 11.193 25 25 25"/></g></svg>