<svg xmlns="http://www.w3.org/2000/svg" width="430" height="430" fill="none" viewBox="0 0 430 430"><g stroke-linecap="round" stroke-linejoin="round" stroke-miterlimit="10" stroke-width="12"><path stroke="#121331" d="M51.35 377.21c5.86-14.91 16.61-37.54 36.15-58.81 51.27-55.8 114.24-41.06 160.54-89.81 14.62-15.39 32.96-42.58 38.99-91.95"/><path stroke="#08a88a" d="M308.735 96.404c2.053-23.1-4.306-42.539-14.203-43.418-9.897-.88-19.584 17.134-21.636 40.234-2.053 23.1 4.307 42.539 14.204 43.418 9.896.88 19.583-17.134 21.635-40.234M127.94 171.64c10.86 26.63 1.86 67.09-35.81 59.56-26.11-5.22-38.57-41.66-40.75-65-2.41-25.84 7.19-46.46 13.22-56.95 8.25 3.17 20.76 9.03 33.34 19.82 9 7.73 21.47 21.67 30 42.57m98.41 175.35c-19.24-16.89-28.16-52.69 4.83-61.67 22.87-6.22 47.28 17.85 58.3 35.57 12.19 19.61 12.74 39.85 12.11 50.6-7.83.76-20.12 1.06-34.43-2.53-10.23-2.58-25.71-8.72-40.81-21.97m5.85-214.04c10.7 18.81 7.92 49.88-20.92 47.93-19.99-1.35-32.83-27.33-36.73-44.53-4.31-19.04.84-35.36 4.32-43.77 6.46 1.56 16.37 4.72 26.8 11.55 7.47 4.88 18.14 14.06 26.53 28.82m121 72.48c-14.82-3.57-29.45-19.97-14.55-33.85 10.33-9.62 29.87-3.7 40.59 2.58 11.86 6.96 17.77 17.47 20.42 23.31-3.92 2.57-10.31 6.14-18.85 8.21-6.12 1.49-15.98 2.55-27.61-.25"/><path stroke="#121331" d="M116.44 294.29c1.57-16.1 1.72-38.53-4.66-64.36-4.57-18.48-11.28-33.85-17.63-45.73m61.42 91.52c8.22-.78 18.7-.75 30.37 1.96 34.1 7.92 53.61 32.95 59.89 41.81m-18.68-73.88c2.58-8.95 5.85-24.66 3.18-43.95-3.17-22.88-13.07-39.07-18.69-46.97m60.3 39.82c3.58-3.71 15.77-15.37 35.01-17.32 11.48-1.16 20.69 1.6 25.75 3.57"/></g></svg>