<svg xmlns="http://www.w3.org/2000/svg" width="430" height="430" style="width:100%;height:100%;transform:translate3d(0,0,0);content-visibility:visible" viewBox="0 0 430 430"><defs><clipPath id="c"><path d="M0 0h430v430H0z"/></clipPath><clipPath id="i"><path d="M0 0h430v430H0z"/></clipPath><clipPath id="h"><path d="M0 0h430v430H0z"/></clipPath><clipPath id="g"><path d="M0 0h430v430H0z"/></clipPath><clipPath id="f"><path d="M0 0h430v430H0z"/></clipPath><clipPath id="d"><path d="M0 0h430v430H0z"/></clipPath><filter id="a" width="100%" height="100%" x="0%" y="0%" filterUnits="objectBoundingBox"><feComponentTransfer in="SourceGraphic"><feFuncA tableValues="1.0 0.0" type="table"/></feComponentTransfer></filter><path id="b" style="display:none"/><mask id="e" mask-type="alpha"><g filter="url(#a)"><path fill="#fff" d="M0 0h430v430H0z" opacity="0"/><use xmlns:ns1="http://www.w3.org/1999/xlink" ns1:href="#b"/></g></mask></defs><g clip-path="url(#c)"><g clip-path="url(#d)" style="display:none"><g mask="url(#e)" style="display:none"><path fill="none" class="primary"/></g><path fill="none" class="primary" style="display:none"/><g fill="none" style="display:none"><path class="secondary"/><path class="primary"/></g><path fill="none" class="secondary" style="display:none"/></g><g fill="none" clip-path="url(#f)" style="display:none"><g style="display:none"><path class="secondary"/><path class="primary"/></g><path class="secondary" style="display:none"/><g style="display:none"><path class="primary"/><path class="primary"/></g></g><g fill="none" clip-path="url(#g)" style="display:none"><path class="primary" style="display:none"/><path class="secondary" style="display:none"/><path class="primary" style="display:none"/><path class="secondary" style="display:none"/></g><g fill="none" stroke-linejoin="round" stroke-width="6" clip-path="url(#h)" style="display:block"><path stroke="#121330" d="M167.5-.75c0 92.508-74.992 167.5-167.5 167.5-30.013 0-58.183-7.894-82.546-21.719l-61.637 23.219 12.341-65.674C-154.18 74.113-167.5 38.238-167.5-.75c0-92.508 74.992-167.5 167.5-167.5S167.5-93.258 167.5-.75z" class="primary" style="display:block" transform="translate(219.5 210.25)"/><path stroke="#07A889" stroke-linecap="round" d="M-89.616-66.617c13.635-18.857 26.836-31.332 29.374-27.778 2.611 3.554 8.848 12.257 13.925 19.292 5.222 7.108 11.024 15.085 13.055 17.914 2.031 2.756-1.161 9.865-7.108 15.812s-8.123 13.417-4.859 16.681l35.393 35.393 34.378 34.378c2.684 2.684 9.719.073 15.666-5.874s12.838-9.284 15.304-7.471 11.097 8.051 19.22 13.998 17.116 12.475 20.09 14.651-9.792 15.086-28.504 28.866-56.934 1.958-85.22-26.328L-62.998 18.82c-28.286-28.286-40.253-66.58-26.618-85.437" class="secondary" style="display:block" transform="translate(220.252 210)"/></g><g fill="none" clip-path="url(#i)" style="display:none"><path class="primary" style="display:none"/><path class="secondary" style="display:none"/></g></g></svg>